<svg version="1.0" xmlns="http://www.w3.org/2000/svg" width="100%" height="100%" viewBox="0 0 512 512" preserveAspectRatio="xMidYMid meet">
            <g fill="none">
                <path d="M0 256 l0 -256 256 0 256 0 0 256 0 256 -256 0 -256 0 0 -256z m315 225.4 c9.8 -2.9 16.7 -9.6 19.1 -18.5 2.4 -9 -4 -21.3 -13.3 -25.6 -3.4 -1.6 -7.5 -2.2 -18.8 -2.7 -23.2 -1.1 -36.6 -3.7 -63 -12.3 -17.9 -5.8 -40 -18.1 -55.9 -31.1 -10 -8.1 -28.6 -26.8 -35 -35.2 -13.1 -17 -25.1 -40.3 -31.6 -61 -5.5 -17.1 -7.5 -29.9 -9.3 -57.5 l-0.7 -11 -2.2 8 c-8.3 29.8 -10 52.5 -5.9 79 6.8 43.9 25.9 82 56.2 112 23.1 23 49.4 39.4 76.7 47.8 25.7 8 34.9 9.5 58.8 9.6 15.2 0.1 20.7 -0.3 24.9 -1.5z m20 -228.3 c0 -135.1 0.2 -167.1 1.3 -167.9 1 -0.8 30.3 -3.2 39.5 -3.2 0.7 0 -0.4 -1.5 -2.5 -3.2 -2.1 -1.8 -7.9 -6.9 -12.9 -11.3 -5 -4.4 -14.2 -12.5 -20.5 -18 -6.3 -5.5 -16.7 -14.5 -23.1 -19.9 l-11.8 -9.8 -3.2 2.7 c-1.8 1.5 -18.1 15.6 -36.1 31.4 l-32.9 28.6 18.6 0.6 c10.2 0.4 19.6 0.9 21.1 1.3 l2.5 0.6 0 32.9 c0 28.6 0.2 33.2 1.6 34.5 1 1 2.4 1.4 4 1 3.8 -1 11.3 0.5 13.5 2.7 1.9 1.9 1.9 4.8 1.9 129.9 l0 128 2.7 1.7 c2.2 1.4 5.6 1.9 17.4 2.3 8.1 0.3 15.1 0.8 15.5 1.3 3.4 3.4 3.4 5 3.4 -166.2z m-57.6 157.7 c0.3 -1.3 0.6 -54.5 0.6 -118.4 0 -95 -0.2 -116.3 -1.3 -117.8 -1.3 -1.8 -3 -1.8 -29.9 -1.1 l-28.5 0.7 -0.7 6.1 c-0.8 7.9 -0.6 46.5 0.3 49.7 0.6 2.3 1.2 2.5 7.6 2.8 10.5 0.3 11.3 0.7 12.3 5 0.5 2 0.8 37.7 0.7 80.2 -0.1 42.1 0 77.5 0.2 78.8 0.4 1.5 2.3 3.2 5.7 4.9 7.5 3.8 27 10.8 31.2 11.2 0.7 0.1 1.4 -0.9 1.8 -2.1z m-58.4 -157.8 c-0.9 -1.8 -2.3 -1.8 -29.2 -1.3 -15.6 0.3 -28.7 1 -29.3 1.5 -0.6 0.6 -0.9 15.1 -0.8 40.5 l0.2 39.6 3.7 5.4 c4.8 7 24.4 27.5 31.9 33.3 3.1 2.5 8.3 6.5 11.4 9.1 3.1 2.5 7.2 5.5 9.1 6.7 l3.5 2.1 0.3 -67.5 c0.1 -43.7 -0.1 -68.2 -0.8 -69.4z" />
            </g>
            <g fill="#0084d4">
                <path d="M260.5 484.5 c-13.5 -2.6 -18.1 -3.8 -32.2 -8.2 -41.4 -12.8 -81.4 -44.7 -105.3 -83.8 -14.3 -23.5 -23.9 -50.2 -28.1 -79 -1.8 -11.8 -1.8 -43.8 -0.1 -53.5 3.1 -16.8 7.7 -34.2 12.9 -48.6 0.8 -2.2 2.1 -4.1 2.9 -4.1 1.2 0 1.3 0.9 0.7 4.6 -1.1 6.7 -0.7 35.2 0.7 46.1 4.3 33.6 18.4 68 39.1 95 6.4 8.4 25 27.1 35 35.2 15.9 13 38 25.3 55.9 31.1 26.4 8.6 39.8 11.2 63 12.3 11.3 0.5 15.4 1.1 18.8 2.7 8.4 3.9 14.2 13.9 14.2 24.7 0 12.1 -7.6 21.7 -20 25.4 -7 2.1 -46.8 2.1 -57.5 0.1z" />
                <path d="M331.5 423.2 c-2.7 -1.1 -8.9 -1.8 -18.5 -2.1 -11.6 -0.5 -15.1 -1 -17.3 -2.4 l-2.7 -1.7 0 -128 c0 -126.7 0 -128 -2 -130 -2.1 -2.1 -3.6 -2.4 -11.1 -2 -8.2 0.3 -7.9 1.5 -7.9 -36 0 -30.3 -0.1 -32.8 -1.7 -33.5 -1 -0.4 -11.7 -0.9 -23.8 -1.1 -12.1 -0.3 -22.1 -0.8 -22.3 -1.3 -0.1 -0.4 2.3 -3 5.5 -5.7 3.2 -2.6 14.6 -12.5 25.3 -21.9 33.6 -29.4 48.9 -42.5 49.9 -42.5 0.5 0 6.9 5 14.3 11.2 12.5 10.4 19.6 16.6 45.7 39.7 5.8 5.1 13 11.1 15.9 13.3 2.8 2.2 5.2 4.4 5.2 4.9 0 0.5 -1.9 0.9 -4.2 0.9 -11.5 0 -41.4 2.2 -42.5 3.2 -1 0.8 -1.3 33.3 -1.5 168.6 -0.2 110.7 -0.6 167.6 -1.3 167.7 -0.5 0.2 -2.8 -0.5 -5 -1.3z" />
                <path d="M271.5 415.5 c-7.1 -1.5 -22.9 -7.2 -30.2 -10.8 -3.9 -2 -5.3 -3.3 -5.7 -5.4 -0.2 -1.6 -0.4 -37.2 -0.2 -79.3 0.1 -42.1 -0.2 -78 -0.7 -79.7 -0.9 -3.8 -2 -4.2 -12.2 -4.5 -6.4 -0.3 -7 -0.5 -7.6 -2.8 -0.9 -3.2 -1.1 -47.8 -0.3 -55.7 l0.7 -6 25.6 -0.9 c32 -1.1 37.2 -0.9 38.9 1.3 0.9 1.3 1.2 27.1 1.2 120.9 0 113.1 -0.3 124.6 -2.7 124.3 -0.5 -0.1 -3.5 -0.7 -6.8 -1.4z" />
                <path d="M215 391.8 c-3 -1.7 -8 -5.2 -11.1 -7.7 -3.1 -2.5 -8.3 -6.6 -11.4 -9.1 -7.5 -5.9 -27.2 -26.4 -31.8 -33.2 l-3.6 -5.3 -0.6 -34.5 c-0.3 -19 -0.2 -38.5 0.2 -43.5 l0.8 -9 31.5 -0.8 c29 -0.7 31.6 -0.6 32.8 1 0.9 1.3 1.2 17.3 1.2 71.9 0 38.6 -0.3 70.9 -0.6 71.8 -0.8 2.1 -1 2.1 -7.4 -1.6z" />
            </g>
        </svg>
